<svg xmlns="http://www.w3.org/2000/svg" xmlns:xlink="http://www.w3.org/1999/xlink" width="340" zoomAndPan="magnify" viewBox="0 0 255 86.249997" height="115" preserveAspectRatio="xMidYMid meet" version="1.0"><defs><g/><clipPath id="2121c8f6ee"><path d="M 1.097656 26 L 85.863281 26 L 85.863281 84.761719 L 1.097656 84.761719 Z M 1.097656 26 " clip-rule="nonzero"/></clipPath><clipPath id="fe42f9562b"><rect x="0" width="128" y="0" height="42"/></clipPath></defs><g clip-path="url(#2121c8f6ee)"><path fill="#ffffff" d="M 78.570312 36.210938 C 77.972656 32.863281 76.902344 29.683594 75.425781 26.742188 L 71.546875 48.894531 L 67.519531 45.527344 L 64.679688 43.148438 C 62.792969 45.238281 60.789062 47.261719 58.59375 49.117188 C 55.992188 51.273438 53.152344 53.246094 50.027344 54.777344 C 46.898438 56.324219 43.480469 57.410156 39.925781 57.800781 C 36.375 58.210938 32.738281 57.886719 29.355469 56.851562 C 26.753906 56.050781 24.320312 54.84375 22.113281 53.367188 C 21.449219 52.941406 20.800781 52.480469 20.191406 51.988281 C 17.503906 49.878906 15.191406 47.398438 13.269531 44.679688 C 11.382812 42.027344 9.835938 39.171875 8.628906 36.195312 L 1.117188 37.894531 L 1.117188 47.109375 L 8.664062 48.792969 C 9.125 51.359375 9.855469 53.824219 10.839844 56.171875 C 11.808594 58.5 13.035156 60.726562 14.460938 62.785156 L 10.296875 69.292969 L 16.824219 75.824219 L 23.351562 71.675781 C 25.410156 73.101562 27.621094 74.328125 29.949219 75.296875 C 32.292969 76.28125 34.761719 77.011719 37.308594 77.472656 L 38.976562 85.019531 L 48.207031 85.019531 L 49.890625 77.472656 C 52.457031 77.011719 54.90625 76.28125 57.25 75.296875 C 59.582031 74.328125 61.789062 73.101562 63.863281 71.675781 L 70.394531 75.839844 L 76.921875 69.3125 L 72.753906 62.785156 C 74.183594 60.726562 75.40625 58.515625 76.375 56.171875 C 77.347656 53.824219 78.09375 51.359375 78.554688 48.808594 L 86.101562 47.125 L 86.101562 37.914062 Z M 67.128906 47.804688 C 64.714844 58.566406 55.09375 66.589844 43.617188 66.589844 C 39.589844 66.589844 35.78125 65.605469 32.429688 63.855469 C 44.859375 64.3125 58.238281 58.109375 64.699219 45.410156 Z M 67.128906 47.804688 " fill-opacity="1" fill-rule="nonzero"/></g><path fill="#ffffff" d="M 72.773438 22.238281 C 73.128906 22.746094 73.46875 23.257812 73.792969 23.785156 L 62.726562 27.8125 L 51.351562 31.980469 L 56.332031 36.144531 L 43.617188 30.992188 L 59.445312 24.328125 C 55.210938 20.640625 49.667969 18.394531 43.617188 18.394531 C 32.753906 18.394531 23.574219 25.570312 20.566406 35.445312 C 18.882812 34.070312 17.675781 32.625 16.773438 31.382812 C 17.0625 33.152344 18.183594 35.464844 19.96875 37.757812 C 25.785156 45.222656 38.824219 52.601562 54.820312 40.800781 C 54.207031 41.480469 53.578125 42.144531 52.917969 42.792969 C 50.875 44.746094 48.699219 46.480469 46.355469 47.855469 C 44.007812 49.234375 41.492188 50.238281 38.910156 50.730469 C 36.324219 51.207031 33.636719 51.1875 31.039062 50.613281 C 26.820312 49.640625 22.859375 47.261719 19.5625 44.03125 C 18.761719 43.265625 18.015625 42.453125 17.300781 41.585938 C 14.378906 38.03125 12.117188 33.847656 10.585938 29.394531 C 11.589844 26.84375 12.898438 24.449219 14.445312 22.222656 L 10.296875 15.710938 L 16.824219 9.183594 L 23.351562 13.328125 C 27.46875 10.472656 32.210938 8.449219 37.328125 7.53125 L 38.992188 0 L 48.226562 0 L 49.90625 7.550781 C 55.023438 8.46875 59.769531 10.472656 63.882812 13.347656 L 70.410156 9.183594 L 76.9375 15.710938 Z M 72.773438 22.238281 " fill-opacity="1" fill-rule="nonzero"/><g transform="matrix(1, 0, 0, 1, 102, 13)"><g clip-path="url(#fe42f9562b)"><g fill="#ffffff" fill-opacity="1"><g transform="translate(1.118602, 30.93614)"><g><path d="M 17.078125 -13.609375 C 17.078125 -12.441406 16.804688 -11.378906 16.265625 -10.421875 C 15.734375 -9.460938 14.914062 -8.6875 13.8125 -8.09375 C 12.707031 -7.5 11.332031 -7.203125 9.6875 -7.203125 L 6.65625 -7.203125 L 6.65625 0 L 1.765625 0 L 1.765625 -20.078125 L 9.6875 -20.078125 C 11.289062 -20.078125 12.644531 -19.800781 13.75 -19.25 C 14.851562 -18.695312 15.679688 -17.929688 16.234375 -16.953125 C 16.796875 -15.984375 17.078125 -14.867188 17.078125 -13.609375 Z M 9.328125 -11.09375 C 10.253906 -11.09375 10.945312 -11.3125 11.40625 -11.75 C 11.863281 -12.1875 12.09375 -12.804688 12.09375 -13.609375 C 12.09375 -14.410156 11.863281 -15.03125 11.40625 -15.46875 C 10.945312 -15.90625 10.253906 -16.125 9.328125 -16.125 L 6.65625 -16.125 L 6.65625 -11.09375 Z M 9.328125 -11.09375 "/></g></g></g><g fill="#ffffff" fill-opacity="1"><g transform="translate(19.904746, 30.93614)"><g><path d="M 6.65625 -20.078125 L 6.65625 0 L 1.765625 0 L 1.765625 -20.078125 Z M 6.65625 -20.078125 "/></g></g></g><g fill="#ffffff" fill-opacity="1"><g transform="translate(29.283521, 30.93614)"><g><path d="M 11.265625 0.203125 C 9.378906 0.203125 7.648438 -0.234375 6.078125 -1.109375 C 4.503906 -1.992188 3.253906 -3.222656 2.328125 -4.796875 C 1.398438 -6.367188 0.9375 -8.132812 0.9375 -10.09375 C 0.9375 -12.050781 1.398438 -13.8125 2.328125 -15.375 C 3.253906 -16.945312 4.503906 -18.171875 6.078125 -19.046875 C 7.648438 -19.921875 9.378906 -20.359375 11.265625 -20.359375 C 13.148438 -20.359375 14.878906 -19.921875 16.453125 -19.046875 C 18.023438 -18.171875 19.265625 -16.945312 20.171875 -15.375 C 21.078125 -13.8125 21.53125 -12.050781 21.53125 -10.09375 C 21.53125 -8.132812 21.070312 -6.367188 20.15625 -4.796875 C 19.238281 -3.222656 18 -1.992188 16.4375 -1.109375 C 14.875 -0.234375 13.148438 0.203125 11.265625 0.203125 Z M 11.265625 -4.265625 C 12.867188 -4.265625 14.148438 -4.796875 15.109375 -5.859375 C 16.078125 -6.929688 16.5625 -8.34375 16.5625 -10.09375 C 16.5625 -11.863281 16.078125 -13.273438 15.109375 -14.328125 C 14.148438 -15.390625 12.867188 -15.921875 11.265625 -15.921875 C 9.640625 -15.921875 8.347656 -15.394531 7.390625 -14.34375 C 6.429688 -13.300781 5.953125 -11.882812 5.953125 -10.09375 C 5.953125 -8.320312 6.429688 -6.90625 7.390625 -5.84375 C 8.347656 -4.789062 9.640625 -4.265625 11.265625 -4.265625 Z M 11.265625 -4.265625 "/></g></g></g><g fill="#ffffff" fill-opacity="1"><g transform="translate(52.701861, 30.93614)"><g><path d="M 19.734375 0 L 14.84375 0 L 6.65625 -12.375 L 6.65625 0 L 1.765625 0 L 1.765625 -20.078125 L 6.65625 -20.078125 L 14.84375 -7.640625 L 14.84375 -20.078125 L 19.734375 -20.078125 Z M 19.734375 0 "/></g></g></g><g fill="#ffffff" fill-opacity="1"><g transform="translate(75.148015, 30.93614)"><g><path d="M 6.65625 -16.15625 L 6.65625 -12.09375 L 13.203125 -12.09375 L 13.203125 -8.328125 L 6.65625 -8.328125 L 6.65625 -3.921875 L 14.0625 -3.921875 L 14.0625 0 L 1.765625 0 L 1.765625 -20.078125 L 14.0625 -20.078125 L 14.0625 -16.15625 Z M 6.65625 -16.15625 "/></g></g></g><g fill="#ffffff" fill-opacity="1"><g transform="translate(91.560866, 30.93614)"><g><path d="M 6.65625 -16.15625 L 6.65625 -12.09375 L 13.203125 -12.09375 L 13.203125 -8.328125 L 6.65625 -8.328125 L 6.65625 -3.921875 L 14.0625 -3.921875 L 14.0625 0 L 1.765625 0 L 1.765625 -20.078125 L 14.0625 -20.078125 L 14.0625 -16.15625 Z M 6.65625 -16.15625 "/></g></g></g><g fill="#ffffff" fill-opacity="1"><g transform="translate(107.973716, 30.93614)"><g><path d="M 12.015625 0 L 7.828125 -7.578125 L 6.65625 -7.578125 L 6.65625 0 L 1.765625 0 L 1.765625 -20.078125 L 9.984375 -20.078125 C 11.566406 -20.078125 12.914062 -19.800781 14.03125 -19.25 C 15.144531 -18.695312 15.976562 -17.9375 16.53125 -16.96875 C 17.082031 -16.007812 17.359375 -14.9375 17.359375 -13.75 C 17.359375 -12.414062 16.976562 -11.222656 16.21875 -10.171875 C 15.46875 -9.128906 14.359375 -8.390625 12.890625 -7.953125 L 17.53125 0 Z M 6.65625 -11.03125 L 9.6875 -11.03125 C 10.582031 -11.03125 11.253906 -11.25 11.703125 -11.6875 C 12.148438 -12.132812 12.375 -12.753906 12.375 -13.546875 C 12.375 -14.316406 12.148438 -14.921875 11.703125 -15.359375 C 11.253906 -15.796875 10.582031 -16.015625 9.6875 -16.015625 L 6.65625 -16.015625 Z M 6.65625 -11.03125 "/></g></g></g></g></g><g fill="#ffffff" fill-opacity="1"><g transform="translate(100.8198, 64.028058)"><g><path d="M 0.59375 -4.84375 C 0.59375 -5.78125 0.804688 -6.625 1.234375 -7.375 C 1.660156 -8.132812 2.238281 -8.726562 2.96875 -9.15625 C 3.707031 -9.582031 4.523438 -9.796875 5.421875 -9.796875 C 6.472656 -9.796875 7.390625 -9.539062 8.171875 -9.03125 C 8.960938 -8.519531 9.539062 -7.800781 9.90625 -6.875 L 8.390625 -6.875 C 8.117188 -7.457031 7.734375 -7.90625 7.234375 -8.21875 C 6.734375 -8.53125 6.128906 -8.6875 5.421875 -8.6875 C 4.742188 -8.6875 4.132812 -8.53125 3.59375 -8.21875 C 3.0625 -7.90625 2.644531 -7.457031 2.34375 -6.875 C 2.039062 -6.300781 1.890625 -5.625 1.890625 -4.84375 C 1.890625 -4.070312 2.039062 -3.394531 2.34375 -2.8125 C 2.644531 -2.238281 3.0625 -1.796875 3.59375 -1.484375 C 4.132812 -1.171875 4.742188 -1.015625 5.421875 -1.015625 C 6.128906 -1.015625 6.734375 -1.164062 7.234375 -1.46875 C 7.734375 -1.78125 8.117188 -2.226562 8.390625 -2.8125 L 9.90625 -2.8125 C 9.539062 -1.882812 8.960938 -1.171875 8.171875 -0.671875 C 7.390625 -0.171875 6.472656 0.078125 5.421875 0.078125 C 4.523438 0.078125 3.707031 -0.128906 2.96875 -0.546875 C 2.238281 -0.960938 1.660156 -1.546875 1.234375 -2.296875 C 0.804688 -3.046875 0.59375 -3.894531 0.59375 -4.84375 Z M 0.59375 -4.84375 "/></g></g></g><g fill="#ffffff" fill-opacity="1"><g transform="translate(111.528654, 64.028058)"><g><path d="M 6.78125 -2.15625 L 2.5625 -2.15625 L 1.796875 0 L 0.453125 0 L 3.953125 -9.609375 L 5.40625 -9.609375 L 8.890625 0 L 7.5625 0 Z M 6.421875 -3.171875 L 4.671875 -8.0625 L 2.921875 -3.171875 Z M 6.421875 -3.171875 "/></g></g></g><g fill="#ffffff" fill-opacity="1"><g transform="translate(120.878087, 64.028058)"><g><path d="M 6.15625 0 L 3.859375 -3.953125 L 2.328125 -3.953125 L 2.328125 0 L 1.0625 0 L 1.0625 -9.671875 L 4.1875 -9.671875 C 4.914062 -9.671875 5.53125 -9.546875 6.03125 -9.296875 C 6.539062 -9.046875 6.921875 -8.707031 7.171875 -8.28125 C 7.421875 -7.851562 7.546875 -7.367188 7.546875 -6.828125 C 7.546875 -6.160156 7.351562 -5.570312 6.96875 -5.0625 C 6.582031 -4.550781 6.007812 -4.210938 5.25 -4.046875 L 7.671875 0 Z M 2.328125 -4.96875 L 4.1875 -4.96875 C 4.875 -4.96875 5.390625 -5.132812 5.734375 -5.46875 C 6.078125 -5.8125 6.25 -6.265625 6.25 -6.828125 C 6.25 -7.398438 6.078125 -7.84375 5.734375 -8.15625 C 5.398438 -8.46875 4.882812 -8.625 4.1875 -8.625 L 2.328125 -8.625 Z M 2.328125 -4.96875 "/></g></g></g><g fill="#ffffff" fill-opacity="1"><g transform="translate(129.311999, 64.028058)"><g/></g></g><g fill="#ffffff" fill-opacity="1"><g transform="translate(133.015705, 64.028058)"><g><path d="M 4.140625 0.09375 C 3.492188 0.09375 2.921875 -0.015625 2.421875 -0.234375 C 1.921875 -0.460938 1.523438 -0.78125 1.234375 -1.1875 C 0.953125 -1.59375 0.804688 -2.054688 0.796875 -2.578125 L 2.140625 -2.578125 C 2.179688 -2.128906 2.363281 -1.75 2.6875 -1.4375 C 3.019531 -1.125 3.503906 -0.96875 4.140625 -0.96875 C 4.734375 -0.96875 5.203125 -1.117188 5.546875 -1.421875 C 5.898438 -1.722656 6.078125 -2.109375 6.078125 -2.578125 C 6.078125 -2.953125 5.972656 -3.253906 5.765625 -3.484375 C 5.566406 -3.710938 5.3125 -3.882812 5 -4 C 4.695312 -4.125 4.289062 -4.253906 3.78125 -4.390625 C 3.132812 -4.554688 2.617188 -4.722656 2.234375 -4.890625 C 1.859375 -5.054688 1.53125 -5.316406 1.25 -5.671875 C 0.976562 -6.035156 0.84375 -6.519531 0.84375 -7.125 C 0.84375 -7.644531 0.976562 -8.109375 1.25 -8.515625 C 1.519531 -8.921875 1.894531 -9.234375 2.375 -9.453125 C 2.863281 -9.679688 3.421875 -9.796875 4.046875 -9.796875 C 4.953125 -9.796875 5.691406 -9.566406 6.265625 -9.109375 C 6.847656 -8.660156 7.175781 -8.0625 7.25 -7.3125 L 5.875 -7.3125 C 5.820312 -7.675781 5.625 -8 5.28125 -8.28125 C 4.9375 -8.570312 4.484375 -8.71875 3.921875 -8.71875 C 3.398438 -8.71875 2.972656 -8.578125 2.640625 -8.296875 C 2.304688 -8.023438 2.140625 -7.644531 2.140625 -7.15625 C 2.140625 -6.800781 2.238281 -6.515625 2.4375 -6.296875 C 2.632812 -6.078125 2.878906 -5.910156 3.171875 -5.796875 C 3.460938 -5.679688 3.867188 -5.546875 4.390625 -5.390625 C 5.035156 -5.222656 5.550781 -5.050781 5.9375 -4.875 C 6.320312 -4.707031 6.65625 -4.441406 6.9375 -4.078125 C 7.21875 -3.722656 7.359375 -3.242188 7.359375 -2.640625 C 7.359375 -2.160156 7.234375 -1.710938 6.984375 -1.296875 C 6.734375 -0.890625 6.363281 -0.554688 5.875 -0.296875 C 5.382812 -0.0351562 4.804688 0.09375 4.140625 0.09375 Z M 4.140625 0.09375 "/></g></g></g><g fill="#ffffff" fill-opacity="1"><g transform="translate(141.158313, 64.028058)"><g><path d="M 2.328125 -8.640625 L 2.328125 -5.40625 L 5.859375 -5.40625 L 5.859375 -4.375 L 2.328125 -4.375 L 2.328125 -1.046875 L 6.265625 -1.046875 L 6.265625 0 L 1.0625 0 L 1.0625 -9.6875 L 6.265625 -9.6875 L 6.265625 -8.640625 Z M 2.328125 -8.640625 "/></g></g></g><g fill="#ffffff" fill-opacity="1"><g transform="translate(148.27443, 64.028058)"><g><path d="M 6.15625 0 L 3.859375 -3.953125 L 2.328125 -3.953125 L 2.328125 0 L 1.0625 0 L 1.0625 -9.671875 L 4.1875 -9.671875 C 4.914062 -9.671875 5.53125 -9.546875 6.03125 -9.296875 C 6.539062 -9.046875 6.921875 -8.707031 7.171875 -8.28125 C 7.421875 -7.851562 7.546875 -7.367188 7.546875 -6.828125 C 7.546875 -6.160156 7.351562 -5.570312 6.96875 -5.0625 C 6.582031 -4.550781 6.007812 -4.210938 5.25 -4.046875 L 7.671875 0 Z M 2.328125 -4.96875 L 4.1875 -4.96875 C 4.875 -4.96875 5.390625 -5.132812 5.734375 -5.46875 C 6.078125 -5.8125 6.25 -6.265625 6.25 -6.828125 C 6.25 -7.398438 6.078125 -7.84375 5.734375 -8.15625 C 5.398438 -8.46875 4.882812 -8.625 4.1875 -8.625 L 2.328125 -8.625 Z M 2.328125 -4.96875 "/></g></g></g><g fill="#ffffff" fill-opacity="1"><g transform="translate(156.708343, 64.028058)"><g><path d="M 9.0625 -9.671875 L 5.40625 0 L 3.953125 0 L 0.3125 -9.671875 L 1.65625 -9.671875 L 4.6875 -1.328125 L 7.734375 -9.671875 Z M 9.0625 -9.671875 "/></g></g></g><g fill="#ffffff" fill-opacity="1"><g transform="translate(166.085527, 64.028058)"><g><path d="M 2.328125 -9.671875 L 2.328125 0 L 1.0625 0 L 1.0625 -9.671875 Z M 2.328125 -9.671875 "/></g></g></g><g fill="#ffffff" fill-opacity="1"><g transform="translate(169.497927, 64.028058)"><g><path d="M 0.59375 -4.84375 C 0.59375 -5.78125 0.804688 -6.625 1.234375 -7.375 C 1.660156 -8.132812 2.238281 -8.726562 2.96875 -9.15625 C 3.707031 -9.582031 4.523438 -9.796875 5.421875 -9.796875 C 6.472656 -9.796875 7.390625 -9.539062 8.171875 -9.03125 C 8.960938 -8.519531 9.539062 -7.800781 9.90625 -6.875 L 8.390625 -6.875 C 8.117188 -7.457031 7.734375 -7.90625 7.234375 -8.21875 C 6.734375 -8.53125 6.128906 -8.6875 5.421875 -8.6875 C 4.742188 -8.6875 4.132812 -8.53125 3.59375 -8.21875 C 3.0625 -7.90625 2.644531 -7.457031 2.34375 -6.875 C 2.039062 -6.300781 1.890625 -5.625 1.890625 -4.84375 C 1.890625 -4.070312 2.039062 -3.394531 2.34375 -2.8125 C 2.644531 -2.238281 3.0625 -1.796875 3.59375 -1.484375 C 4.132812 -1.171875 4.742188 -1.015625 5.421875 -1.015625 C 6.128906 -1.015625 6.734375 -1.164062 7.234375 -1.46875 C 7.734375 -1.78125 8.117188 -2.226562 8.390625 -2.8125 L 9.90625 -2.8125 C 9.539062 -1.882812 8.960938 -1.171875 8.171875 -0.671875 C 7.390625 -0.171875 6.472656 0.078125 5.421875 0.078125 C 4.523438 0.078125 3.707031 -0.128906 2.96875 -0.546875 C 2.238281 -0.960938 1.660156 -1.546875 1.234375 -2.296875 C 0.804688 -3.046875 0.59375 -3.894531 0.59375 -4.84375 Z M 0.59375 -4.84375 "/></g></g></g><g fill="#ffffff" fill-opacity="1"><g transform="translate(180.206781, 64.028058)"><g><path d="M 2.328125 -8.640625 L 2.328125 -5.40625 L 5.859375 -5.40625 L 5.859375 -4.375 L 2.328125 -4.375 L 2.328125 -1.046875 L 6.265625 -1.046875 L 6.265625 0 L 1.0625 0 L 1.0625 -9.6875 L 6.265625 -9.6875 L 6.265625 -8.640625 Z M 2.328125 -8.640625 "/></g></g></g><g fill="#ffffff" fill-opacity="1"><g transform="translate(187.322899, 64.028058)"><g/></g></g><g fill="#ffffff" fill-opacity="1"><g transform="translate(191.026605, 64.028058)"><g><path d="M 0.59375 -4.84375 C 0.59375 -5.78125 0.804688 -6.625 1.234375 -7.375 C 1.660156 -8.132812 2.238281 -8.726562 2.96875 -9.15625 C 3.707031 -9.582031 4.523438 -9.796875 5.421875 -9.796875 C 6.472656 -9.796875 7.390625 -9.539062 8.171875 -9.03125 C 8.960938 -8.519531 9.539062 -7.800781 9.90625 -6.875 L 8.390625 -6.875 C 8.117188 -7.457031 7.734375 -7.90625 7.234375 -8.21875 C 6.734375 -8.53125 6.128906 -8.6875 5.421875 -8.6875 C 4.742188 -8.6875 4.132812 -8.53125 3.59375 -8.21875 C 3.0625 -7.90625 2.644531 -7.457031 2.34375 -6.875 C 2.039062 -6.300781 1.890625 -5.625 1.890625 -4.84375 C 1.890625 -4.070312 2.039062 -3.394531 2.34375 -2.8125 C 2.644531 -2.238281 3.0625 -1.796875 3.59375 -1.484375 C 4.132812 -1.171875 4.742188 -1.015625 5.421875 -1.015625 C 6.128906 -1.015625 6.734375 -1.164062 7.234375 -1.46875 C 7.734375 -1.78125 8.117188 -2.226562 8.390625 -2.8125 L 9.90625 -2.8125 C 9.539062 -1.882812 8.960938 -1.171875 8.171875 -0.671875 C 7.390625 -0.171875 6.472656 0.078125 5.421875 0.078125 C 4.523438 0.078125 3.707031 -0.128906 2.96875 -0.546875 C 2.238281 -0.960938 1.660156 -1.546875 1.234375 -2.296875 C 0.804688 -3.046875 0.59375 -3.894531 0.59375 -4.84375 Z M 0.59375 -4.84375 "/></g></g></g><g fill="#ffffff" fill-opacity="1"><g transform="translate(201.735459, 64.028058)"><g><path d="M 2.328125 -8.640625 L 2.328125 -5.40625 L 5.859375 -5.40625 L 5.859375 -4.375 L 2.328125 -4.375 L 2.328125 -1.046875 L 6.265625 -1.046875 L 6.265625 0 L 1.0625 0 L 1.0625 -9.6875 L 6.265625 -9.6875 L 6.265625 -8.640625 Z M 2.328125 -8.640625 "/></g></g></g><g fill="#ffffff" fill-opacity="1"><g transform="translate(208.851577, 64.028058)"><g><path d="M 8.671875 0 L 7.40625 0 L 2.328125 -7.703125 L 2.328125 0 L 1.0625 0 L 1.0625 -9.6875 L 2.328125 -9.6875 L 7.40625 -2 L 7.40625 -9.6875 L 8.671875 -9.6875 Z M 8.671875 0 "/></g></g></g><g fill="#ffffff" fill-opacity="1"><g transform="translate(218.603285, 64.028058)"><g><path d="M 7.015625 -9.671875 L 7.015625 -8.640625 L 4.390625 -8.640625 L 4.390625 0 L 3.125 0 L 3.125 -8.640625 L 0.46875 -8.640625 L 0.46875 -9.671875 Z M 7.015625 -9.671875 "/></g></g></g><g fill="#ffffff" fill-opacity="1"><g transform="translate(226.107802, 64.028058)"><g><path d="M 2.328125 -8.640625 L 2.328125 -5.40625 L 5.859375 -5.40625 L 5.859375 -4.375 L 2.328125 -4.375 L 2.328125 -1.046875 L 6.265625 -1.046875 L 6.265625 0 L 1.0625 0 L 1.0625 -9.6875 L 6.265625 -9.6875 L 6.265625 -8.640625 Z M 2.328125 -8.640625 "/></g></g></g><g fill="#ffffff" fill-opacity="1"><g transform="translate(233.22392, 64.028058)"><g><path d="M 6.15625 0 L 3.859375 -3.953125 L 2.328125 -3.953125 L 2.328125 0 L 1.0625 0 L 1.0625 -9.671875 L 4.1875 -9.671875 C 4.914062 -9.671875 5.53125 -9.546875 6.03125 -9.296875 C 6.539062 -9.046875 6.921875 -8.707031 7.171875 -8.28125 C 7.421875 -7.851562 7.546875 -7.367188 7.546875 -6.828125 C 7.546875 -6.160156 7.351562 -5.570312 6.96875 -5.0625 C 6.582031 -4.550781 6.007812 -4.210938 5.25 -4.046875 L 7.671875 0 Z M 2.328125 -4.96875 L 4.1875 -4.96875 C 4.875 -4.96875 5.390625 -5.132812 5.734375 -5.46875 C 6.078125 -5.8125 6.25 -6.265625 6.25 -6.828125 C 6.25 -7.398438 6.078125 -7.84375 5.734375 -8.15625 C 5.398438 -8.46875 4.882812 -8.625 4.1875 -8.625 L 2.328125 -8.625 Z M 2.328125 -4.96875 "/></g></g></g></svg>